Patient4_TMGait_0pt7_01_left_44_EMG.mot
version=1
nRows=37
nColumns=33
inDegrees=no
endheader
time	1LAddLong	2LGlutMax	3LGlutMed	4LIliopsoas	5LSemiMemb	6LBicFemLong	7LRecFem	8LVastMed	9LVastLat	10LGasMed	11LTibAnt	12lTibPost	13LPeroneusLong	14LSol	15LExtDigLong	16LFlexDigLong	17RAddLong	18RGlutMax	19RGlutMed	20RIliopsoas	21RSemiMemb	22RBicFemLong	23RRecFem	24RVastMed	25RVastLat	26RGasMed	27RTibAnt	28RTibPost	29RPeroneusLong	30RSol	31RExtDigLong	32RFlexDigLong
50.99	0.000916	0.47211	-0.021515	0.006256	-0.001678	0.075836	0.22308	0.028992	0.25787	-0.000458	-0.056305	-0.000916	0.1471	-0.1648	-0.11475	-0.003967	0.071106	-0.1799	-0.41489	-0.032501	-0.36529	-0.28595	-0.065308	-0.046997	0.13092	-0.046082	0.033875	-0.02243	-0.24857	-0.18433	-0.001221	-0.00412
50.991	0.008392	0.40939	-0.032654	0.023041	-0.001221	0.071411	0.18158	0.021515	0.26184	0.014801	-0.13275	0.000153	0.15945	-0.12787	-0.43854	-0.0177	0.049896	-0.17014	-0.047607	0.018005	-0.20416	-0.38727	-0.051117	-0.001373	0.089417	0.05722	0.00885	-0.01358	-0.10864	-0.11292	-0.002136	-0.000916
50.992	0.01236	0.3717	-0.01709	0.028992	-0.011444	0.043488	0.17273	0.016327	0.27664	0.030212	-0.092468	-0.003204	0.089874	-0.12817	-0.37293	-0.018158	0.049438	-0.16907	0.10193	0.018768	0.024719	-0.21515	-0.097504	-0.074615	0.014191	-0.053101	-0.015106	-0.012817	0.3006	-0.06958	-0.001526	-0.009918
50.993	0.009918	0.34653	-0.050964	0.001678	-0.006409	0.021057	0.15243	0.028229	0.27329	0.001373	-0.06012	0.001373	0.05249	-0.096283	-0.006256	-0.016174	0.030365	-0.16739	0.028534	0.13031	0.18646	-0.079956	-0.19028	-0.007019	0.040436	0.050201	-0.014954	-0.013428	0.92453	-0.14572	0	-0.019531
50.994	0.014343	0.29739	-0.074768	-0.023193	-0.014496	0.011902	0.13672	-0.018768	0.26977	-0.003662	-0.03418	-0.004425	0.065918	-0.052948	0.059814	-0.013733	-0.020142	-0.16556	-0.09964	0.1506	-0.050964	-0.050659	-0.16251	-0.036163	0.041809	0.061951	0.03479	-0.002289	0.36072	-0.11459	-0.001221	-0.014801
50.995	0.01236	0.28763	-0.011444	-0.031586	-0.006866	-0.006256	0.14725	0.001678	0.25971	-0.002747	0.000305	-0.003662	0.05722	-0.019531	0.022736	-0.016479	-0.014954	-0.17288	-0.011292	0.067902	-0.057983	-0.10239	-0.020752	-0.055389	-0.019073	-0.09079	-0.081024	-0.018005	-0.036621	-0.14786	-0.001831	0.002441
50.996	0.01236	0.24643	-0.00885	-0.021973	-0.006561	-0.011292	0.13443	0.014954	0.2388	-0.001526	0.009155	-0.003052	0.046692	-0.043335	0.020905	-0.016785	0.050812	-0.14862	0.001068	0.10712	0.2095	-0.078735	0.11383	-0.16525	-0.069885	0.005341	-0.16663	-0.044861	0.068207	0.040436	-0.002289	0.010071
50.997	0.009308	0.21988	-0.012054	0.00412	-0.006561	-0.009003	0.12924	0.009918	0.24948	0.006104	-0.002747	-0.00351	0.054016	-0.14053	-0.10513	-0.019531	0.018616	-0.1564	0.071411	0.10162	0.1207	0.33539	0.10544	-0.14358	-0.073242	0.057678	-0.035095	-0.0383	-0.1593	0.30121	-0.00412	0
50.998	0.002594	0.22903	-0.009155	0.014954	-0.004883	-0.001221	0.13596	0.010071	0.23025	0.000916	-0.098419	-0.003357	0.07019	-0.14999	-0.11734	-0.014954	-0.000305	-0.1294	-0.15045	-0.010376	-0.021057	0.56885	0.14832	-0.14847	-0.072479	0.11139	0.061035	0.11261	0.13214	0.30624	0.002136	-0.004425
50.999	0.009918	0.19073	-0.023499	0.016785	-0.005035	-0.009766	0.14267	0.009003	0.22797	-0.039063	-0.10712	0.005493	0.072937	-0.096588	-0.034943	-0.023651	0.010529	-0.078735	-0.30151	-0.050507	-0.026703	0.29022	0.19669	-0.067291	0.00351	0.09903	0.19241	0.061493	0.11002	0.19913	-0.001831	-0.004883
51	0.00885	0.17242	-0.003052	0.025177	-0.00824	0.005493	0.14984	0.014648	0.215	-0.030823	-0.064545	0.003052	0.016174	-0.041351	0.014191	-0.020447	0.012512	-0.071716	-0.1831	0.010223	-0.054626	0.025787	0.10712	0.010529	0.1181	0.053101	0.21561	0.02182	-0.33249	-0.036011	-0.002899	-0.007782
51.001	0.001221	0.19852	-0.020905	0.015564	-0.001068	-0.015106	0.13977	0.018463	0.22171	0.001984	-0.005035	-0.002289	-0.011444	-0.005493	-0.019226	-0.021362	0.008698	-0.032043	-0.13901	0.052643	-0.013733	-0.038757	-0.011139	-0.037994	0.09079	0.050507	-0.071259	-0.036163	-0.38696	-0.10544	-0.001373	-0.007629
51.002	0.006256	0.20691	-0.036316	0.015106	-0.015564	-0.007172	0.1355	0.013123	0.22842	0.039215	0.15427	0.000763	0.011749	0.03006	-0.0177	-0.020447	-0.013733	0.066681	0.26489	-0.039825	0.070038	-0.11734	-0.075684	0.065613	0.001373	-0.007172	-0.20279	-0.033417	-0.11108	-0.090332	-0.003357	-0.005341
51.003	0.003662	0.18433	-0.010223	0.009003	-0.010071	-0.016632	0.14633	0.011139	0.22324	0.006561	0.21668	-0.001678	0.030975	0.028534	0.2948	-0.005951	-0.013733	0.13748	0.1593	-0.13367	0.10086	-0.16464	-0.24246	0.056915	0.058289	-0.024261	-0.000458	-0.039215	-0.73578	-0.08606	-0.005188	-0.010071
51.004	0.00473	0.19592	0.02243	0.006409	-0.011597	-0.041199	0.14114	0.016022	0.21866	-0.046082	0.11551	0.004272	0.068817	0.008545	0.38422	-0.009613	-0.002136	0.14923	-0.063934	-0.13809	0.075378	-0.26321	-0.087128	0.11017	0.057373	-0.016479	-0.020142	-0.039978	0.25436	0.10086	-0.002289	-0.004578
51.005	0.00824	0.20523	-0.005341	-0.003204	-0.013733	-0.044708	0.14191	0.015869	0.21927	-0.024567	0.063629	0.005035	0.035706	0.000458	0.32974	-0.00885	0.03006	0.11856	0.084839	-0.052643	0.067444	-0.18295	0.13016	0.055389	-0.008392	-0.035706	-0.029755	-0.040436	0.62149	0.025482	-0.003662	-0.007782
51.006	0.000916	0.1738	-0.027313	0.040741	-0.00946	-0.049286	0.13977	0.017395	0.21423	0.024872	0.088196	0.002136	0.020294	-0.046234	0.052795	-0.023804	0.01358	0.20218	-0.050507	0.024719	-0.052338	0.00824	0.034332	-0.020599	-0.002136	0.04303	0.074463	-0.044403	-0.59021	0.067139	0.001831	-0.009003
51.007	0.009308	0.18936	-0.026703	0.03418	-0.009308	-0.050354	0.15228	0.01297	0.20752	0.006866	0.002899	0.007477	0.10284	-0.000916	-0.077972	-0.029755	-0.006714	0.28793	0.1564	0.065918	-0.19394	0.14771	-0.11078	-0.049896	0.023651	0.072937	0.01297	-0.058289	-0.70084	0.018616	0.000458	-0.014496
51.008	-0.003052	0.1738	-0.048828	0.008087	-0.018921	-0.046844	0.15701	0.009155	0.19623	-0.047302	-0.076904	0.00885	0.15518	0.028687	-0.16373	-0.026398	-0.023499	0.32745	0.51437	0.11047	-0.14603	0.11459	-0.066528	0.061493	0.032043	0.029144	-0.045929	0.010529	0.092316	0.063324	0.000153	-0.007019
51.009	0.001984	0.14404	-0.044403	0.011292	-0.018158	-0.058289	0.15732	0.007477	0.19211	-0.10071	-0.072784	0.004272	0.18814	0.054932	-0.18631	-0.009918	-0.020142	0.39124	0.4126	0.14023	-0.038757	-0.036469	-0.02243	0.05661	-0.023651	0.006409	0.065765	0.22995	-0.69031	0.14984	-0.00473	-0.01297
51.01	0.00885	0.11398	-0.042725	0.012817	-0.010376	-0.042267	0.15366	0.007019	0.19562	-0.088654	-0.034485	0.002899	0.17471	0.019684	-0.26611	-0.016174	0.00061	0.3479	-0.018768	0.25971	0.09552	-0.1001	0.050659	0.019684	-0.035858	-0.015259	0.19486	0.021667	-2.0108	0.13718	-0.001678	-0.014343
51.011	0.009308	0.077515	-0.050812	0.010529	-0.005951	-0.055542	0.14053	0.005951	0.18845	-0.088196	0.002289	0.009918	0.15106	0	-0.17136	-0.008392	0.034332	0.30106	-0.32318	0.12741	0.090942	-0.084686	0.097809	-0.014191	-0.044861	0.000458	0.14557	-0.049133	-0.99731	-0.21759	-0.001373	-0.009918
51.012	0.007324	0.10666	-0.042725	0.011139	-0.0177	-0.061646	0.14313	0.006714	0.19547	-0.058746	-0.010223	0.011597	0.093994	-0.037689	-0.29236	-0.003052	0.06897	0.28351	-0.2095	0.008392	0.13397	-0.13657	0.11673	-0.054474	-0.024261	0.02594	-0.043335	-0.035706	1.4452	-0.24689	-0.001068	0.000763
51.013	0.010071	0.12512	-0.041046	0.00885	-0.003815	-0.048523	0.13458	0.004578	0.18372	-0.007935	-0.045776	0.013123	0.022583	-0.086365	0.29159	0.001373	0.094452	0.28992	-0.29205	-0.057831	0.1712	-0.2359	0.073853	-0.096741	-0.041504	-0.000305	-0.2713	-0.022583	1.4491	-0.044403	-0.006409	0.003052
51.014	0.005341	0.084686	-0.047302	0.019531	0.002136	-0.039673	0.11307	0.008545	0.17364	0.050354	-0.024719	0.008545	-0.021515	-0.061188	-0.003357	0.001221	0.025177	0.28381	-0.10635	-0.054779	0.090637	-0.17654	-0.15274	-0.081329	0.007629	-0.00061	-0.14679	0.005951	-1.0118	-0.084991	0.002594	0.001831
51.015	0.008392	0.089874	-0.070343	0.011292	-0.00885	-0.039978	0.10757	0.007629	0.15671	0.061951	-0.056915	0.00946	-0.003662	-0.053711	0.14145	0.005035	-0.002899	0.21469	0.042572	-0.081329	-0.25497	0.018005	-0.17639	-0.062866	0.023346	0.014343	-0.051575	-0.000916	-0.56839	-0.36194	-0.006256	0.004578
51.016	0.003204	0.073853	-0.054626	0.003204	-0.007172	-0.024109	0.084991	0.005035	0.15839	0.047455	0.021515	0.011597	0.022583	-0.012817	0.001678	0.007629	0.016327	0.23712	0.27908	-0.081787	-0.47882	0.23438	-0.029755	-0.049438	0.051117	0.007019	-0.11322	-0.020142	0.000458	-0.62744	-0.001068	-0.008545
51.017	0.00824	0.075531	-0.032806	0.009613	-0.011139	-0.02655	0.055695	0.003662	0.15243	-0.019836	0.20447	0.019379	0.001526	-0.072174	-0.2124	0.000916	0.001373	0.16296	0.18448	-0.034485	-0.30472	0.56168	-0.028992	0.031281	0.059662	-0.000916	-0.034332	-0.028534	-0.49515	-0.59692	0.001678	-0.011902
51.018	0.010681	0.057831	-0.03952	0.007324	-0.018005	-0.023804	0.050812	0.007172	0.14648	0.007172	0.17731	0.014038	-0.020294	-0.08606	-0.055237	0.017548	-0.081635	0.14999	0.25742	-0.001831	-0.36896	0.59845	-0.053101	0.14175	0.065765	-0.006866	-0.11398	-0.0737	1.1377	-0.071564	-0.002594	-0.007782
51.019	0.001984	0.067291	-0.029449	0.009308	0.00061	-0.023499	0.031738	0.007019	0.14435	-0.001373	0.035248	0.01358	0.012817	-0.051727	-0.051422	0.019073	-0.11276	0.18814	-0.16403	0.041504	-0.078888	0.24567	0.000763	0.15121	0.095215	-0.021057	-0.056915	-0.10513	0.69183	0.24796	-0.000916	-0.007019
51.02	0.010834	0.036163	-0.033569	0.000153	-0.004425	-0.014954	0.016174	0.006409	0.14008	-0.003815	-0.024872	0.013275	0.054169	-0.017242	0.00061	0.013733	-0.085907	0.10239	0.072327	0.061188	0.39337	0.13718	0.018311	0.094299	0.09201	-0.051117	0.045166	0.018921	-0.26962	0.41687	-0.007172	-0.010376
51.021	0.001068	0.034332	-0.023193	0.004425	-0.03067	-0.011902	0.000916	0.007782	0.13412	0.006409	0.009308	0.01358	0.032043	-0.016174	0.15839	0.016022	-0.029907	0.10254	0.45258	-0.069275	0.22873	-0.037231	0.11688	0.007629	0.042572	-0.073242	0.032043	0.13992	0.020447	0.15198	-0.00412	-0.005493
51.022	-0.001984	0.079346	0.014801	0.000763	-0.01358	-0.024567	-0.00061	0.007324	0.12589	-0.014496	0.075989	0.008545	0.005798	0.012817	0.21668	0.017853	-0.024414	0.25848	0.66818	-0.21973	0.097046	0.22232	0.03067	-0.02594	-0.004425	-0.10162	0.00824	0.094604	0.51559	0.25345	-0.001221	-0.005646
51.023	0.005188	0.09491	-0.006714	0.005188	0.003357	-0.039673	-0.010223	0.006714	0.1207	-0.013885	0.11841	0.013275	0.006409	0.005798	0.87128	0.028076	-0.011902	0.30807	0.74478	-0.18845	0.051727	0.40924	0.02182	-0.008545	-0.032349	-0.13641	0.028076	0.01709	-0.062714	0.36667	0.000153	-0.007172
51.024	0.003357	0.068512	-0.018311	0.000458	-0.013885	-0.059357	-0.019684	0.006104	0.13275	0.017548	0.061188	0.013428	0.019989	0.00473	0.080414	0.038757	0.002747	0.20767	0.10651	-0.059814	0.065765	0.3418	0.024109	0.032043	-0.019073	-0.018921	0.046387	-0.055084	-0.14893	0.27374	-0.002899	-0.001831
51.025	0.007477	0.040436	-0.026245	0.010681	-0.013733	-0.077057	-0.022736	0.00473	0.12833	0.019531	-0.043945	0.011139	0.020447	0.012054	-0.13229	0.033875	0.018616	0.099335	0.076752	-0.006409	0.051575	0.20187	0.041656	-0.014038	-0.054779	0.074005	0.061951	-0.051422	-0.31189	0.29205	-0.001831	-0.00885
51.026	0.011139	0.010986	-0.028839	0.014496	-0.040588	-0.1033	-0.03479	0.002899	0.12665	-0.014954	-0.21454	0.014801	0.11108	0.06897	-0.28366	0.037689	0.019989	0.11673	0.023041	-0.024872	0.070496	-0.065155	0.073853	0.006714	-0.0914	0.12558	0.02655	0.098419	-0.063934	0.1564	-0.000916	-0.007629
